<?xml version="1.0" encoding="UTF-8"?>
<!DOCTYPE svg PUBLIC "-//W3C//DTD SVG 1.1//EN" "http://www.w3.org/Graphics/SVG/1.1/DTD/svg11.dtd">
<!-- Creator: CorelDRAW 2018 (64 bitů) -->
<svg xmlns="http://www.w3.org/2000/svg" xml:space="preserve" width="71mm" height="15mm" version="1.1" style="shape-rendering:geometricPrecision; text-rendering:geometricPrecision; image-rendering:optimizeQuality; fill-rule:evenodd; clip-rule:evenodd"
viewBox="0 0 7100 1500"
 xmlns:xlink="http://www.w3.org/1999/xlink">
 <defs>
  <style type="text/css">
   <![CDATA[
    .fil1 {fill:#FEFEFE}
    .fil0 {fill:#FEFEFE;fill-rule:nonzero}
   ]]>
  </style>
 </defs>
 <g id="Vrstva_x0020_1">
  <metadata id="CorelCorpID_0Corel-Layer"/>
  <path class="fil0" d="M802.84 924.19l-213.36 -562.18 -203.2 562.18 416.56 0zm368.86 496.15l-181.18 0 -140.55 -368.86 -507.72 0 -133.77 368.86 -169.61 0 465.66 -1212.14 172.72 0 494.45 1212.14z"/>
  <path id="1" class="fil0" d="M1598.42 1440.94c-239.89,0 -365.19,-94.26 -376.2,-282.78l156.07 0c1.13,106.96 73.94,160.58 218.44,160.58 64.35,0 113.73,-13.55 147.6,-40.08 33.87,-26.81 50.8,-60.39 50.8,-100.47 0,-39.79 -16.65,-67.73 -49.67,-84.1 -33.02,-16.08 -101.32,-37.25 -204.61,-63.22 -103.29,-25.96 -178.93,-54.75 -226.62,-86.92 -47.7,-31.89 -71.41,-88.05 -71.41,-168.49 0,-72.81 29.64,-132.92 88.9,-180.62 59.27,-47.69 138.57,-71.68 237.63,-71.68 230.01,0 347.42,81.84 352.22,245.53l-155.51 0c-5.36,-82.69 -67.45,-123.9 -185.98,-123.9 -52.21,0 -95.68,9.88 -130.11,29.64 -34.43,20.04 -51.64,48.82 -51.64,86.92 0,34.15 12.98,58.99 39.51,73.94 26.53,15.24 92.85,35.56 198.96,61.25 106.12,25.68 184.86,55.59 236.51,89.74 51.36,34.15 77.33,93.14 77.33,176.96 0,79.86 -31.9,146.19 -95.68,198.68 -63.5,52.78 -149.29,79.02 -256.54,79.02z"/>
  <path id="2" class="fil0" d="M2472.19 1422.03c-34.15,6.49 -71.41,9.88 -111.48,9.88 -64.07,0 -110.91,-11.57 -140.55,-34.43 -29.91,-22.86 -48.26,-52.21 -55.6,-88.05 -7.05,-35.85 -10.72,-84.39 -10.72,-146.19l0 -497.84 -108.09 0 0 -122.2 108.09 0 0 -218.44 155.5 0 0 218.44 142.24 0 0 122.2 -142.24 0 0 506.02c0,60.11 7.62,98.21 22.86,114.58 14.96,16.37 35.85,24.27 62.37,24.27 27.1,0 52.78,-1.97 77.62,-6.49l0 118.25z"/>
  <path id="3" class="fil0" d="M3057.79 685.43c-22.29,-6.77 -53.9,-10.16 -95.11,-10.16 -79.58,0 -147.6,41.77 -204.32,125.03l0 620.04 -156.36 0 0 -877.14 156.36 0 0 122.2c65.47,-94.83 141.67,-142.24 228.31,-142.24 22.02,0 45.72,2.26 71.12,6.77l0 155.5z"/>
  <path class="fil1" d="M3717.08 385.98c213.08,0 394.76,122.86 481.99,299.65 39.17,-90.19 43.57,-167.8 4.5,-217.54 -36.17,-46.02 -104.33,-61.51 -191.1,-50.32 167.05,-64.45 299.46,-70.74 352.37,-3.4 58.83,74.88 5.98,223.7 -123.33,391.58 8.44,37.84 12.91,77.12 12.91,117.37 0,296.76 -240.57,537.33 -537.34,537.33 -85.52,0 -166.36,-20.01 -238.13,-55.56 -193.71,85.91 -350.79,102.05 -409.62,27.18 -47.26,-60.15 -22.47,-168.01 56.14,-295.13 -20.51,68.41 -17.3,126.69 14.24,166.83 43.23,55.03 132.17,66.44 243.98,40.74 -124.24,-98.41 -203.94,-250.59 -203.94,-421.39 0,-296.76 240.57,-537.34 537.33,-537.34zm309.26 210.52c-167.08,-198.4 -456.85,-152.24 -608.02,-28.62 -157.81,129.06 -249.08,421.11 -72.44,622.35 -131.76,-190.73 -45.26,-427.77 111.63,-573.84 135.81,-126.44 359.65,-184.3 568.83,-19.89z"/>
  <polygon class="fil0" points="5528.37,1423.5 5363.83,1423.5 4728.84,466.77 4728.84,1423.5 4576.44,1423.5 4576.44,211.36 4740.41,211.36 5375.41,1168.09 5375.41,211.36 5528.37,211.36 "/>
  <path id="1" class="fil0" d="M6151.8 1444.1c-128.97,0 -232.83,-40.36 -311.01,-121.07 -78.17,-80.72 -117.4,-193.32 -117.4,-337.82 0,-143.37 37.82,-255.69 113.73,-336.97 75.64,-81.28 174.7,-121.92 297.18,-121.92 125.03,0 224.93,40.07 299.72,119.94 74.79,79.87 112.04,193.04 112.04,338.95l0 37.25 -660.68 0c6.78,101.32 34.72,176.67 84.11,225.78 49.1,49.11 110.06,73.66 182.31,73.66 54.47,0 103.58,-14.11 147.32,-41.77 44.03,-27.94 66.89,-67.45 69.15,-118.81l161.14 0c-12.13,90.59 -53.05,160.3 -122.76,209.12 -69.71,49.11 -154.66,73.66 -254.85,73.66zm229.73 -543.84c-12.7,-84.38 -41.2,-147.6 -85.23,-189.37 -44.03,-42.05 -97.93,-62.94 -162,-62.94 -62.37,0 -115.71,20.89 -160.3,62.38 -44.87,41.76 -73.09,104.98 -85.23,189.93l492.76 0z"/>
  <path id="2" class="fil0" d="M7061.12 1425.19c-34.15,6.49 -71.41,9.88 -111.48,9.88 -64.07,0 -110.91,-11.57 -140.55,-34.43 -29.91,-22.86 -48.26,-52.21 -55.6,-88.05 -7.05,-35.85 -10.72,-84.39 -10.72,-146.19l0 -497.84 -108.09 0 0 -122.2 108.09 0 0 -218.44 155.5 0 0 218.44 142.24 0 0 122.2 -142.24 0 0 506.02c0,60.11 7.62,98.21 22.86,114.58 14.96,16.37 35.85,24.27 62.37,24.27 27.1,0 52.78,-1.97 77.62,-6.49l0 118.25z"/>
  <g id="_1851613518960">
   <g>
    <g>
     <path class="fil1" d="M1214.12 433.23c-2.55,2.58 -5.25,5.11 -7.65,7.72 -3.92,4.5 -7.69,9.03 -11.57,13.37 -2.68,3.03 -4.2,6.07 -3.92,10.27 0.44,8.88 -2.15,17.38 -4.74,25.88 -2.82,8.77 -7.09,16.79 -12.12,24.6 -4.56,7.28 -11.81,10.17 -19.73,14.18 0.61,-10.22 5.92,-18.45 5.5,-29.13 -3.26,4.52 -5.88,7.9 -8.23,11.52 -6.4,9.72 -12.92,19.25 -19.17,29.02 -2.48,4.08 -6.14,6.5 -9.96,8.88 -16.01,10.45 -31.4,21.58 -46.08,33.73 -8.87,7.38 -17.68,15.1 -26.44,22.67 -0.39,0.22 -0.93,0.39 -1.67,0.67 -0.14,-4.16 1.63,-7.45 3.39,-10.75 8.89,-16.11 17.73,-32.07 26.7,-48.49 -0.96,-0.11 -1.87,-0.37 -2.72,-0.29 -3.14,0.59 -6.37,1.49 -9.51,2.08 -5.53,0.9 -9.4,-3.5 -7.26,-8.67 2.94,-7.42 7.23,-13.78 13.74,-18.69 4.43,-3.36 9.11,-6.48 13.64,-9.65 10.09,-7.02 18.61,-15.48 24.97,-26.21 4.16,-7.07 7.82,-14.11 9.78,-22.14 0.93,-3.85 0.98,-7.47 -0.44,-11.18 -2.41,-6.63 -2.19,-13.17 0.99,-19.69 3.94,-8.61 9.12,-16.37 15.14,-23.57 7.93,-9.29 15.86,-18.58 24.42,-27.2 13.22,-13.39 27.3,-25.72 43.3,-35.51 5.38,-3.25 10.72,-6.35 16.32,-9.21 5.4,-2.75 9.65,-6.66 14.21,-10.47 6.34,-5.46 12.74,-10.56 19.35,-15.78 5.97,-4.73 11.72,-9.86 17.91,-14.2 7.21,-5.04 14.69,-9.84 22.12,-14.49 10.61,-6.54 22.05,-11.37 33.71,-15.8 18.09,-6.72 36.64,-12.16 55.15,-17.45 17.26,-4.98 33.91,-11.29 50.37,-18.64 11.53,-5.13 23.16,-10.07 34.76,-14.85 4.49,-1.85 7.04,-5.58 9.96,-8.87 0.96,-1.05 0.56,-3.14 0.69,-4.76 -4.97,-3.39 -10.14,-3.22 -15.15,-4.15 -4.1,-0.68 -8.2,-1.35 -12.08,-2.79 -3.27,-1.26 -5.93,-3.5 -6.06,-7.67 -0.14,-4.16 1.8,-6.91 5.44,-8.68 5.41,-2.75 11.2,-3.4 17.11,-2.71 4.3,0.57 8.64,0.98 12.86,1.19 3.73,0.24 7.57,0.68 11.43,0.45 2.85,-0.17 5.8,-0.65 8.67,-1.48 1.44,-0.42 3.21,-1.4 3.86,-2.53 2.88,-5.45 7.76,-5.22 12.64,-4.98 4.23,0.21 8.53,0.78 12.82,1.34 8.74,1.18 17.49,2.35 26.14,3.83 8.5,1.43 16.88,3.32 25.38,4.76 1.42,0.24 3.25,-0.4 4.32,-1.25 8.91,-6.37 19.17,-9.38 29.44,-12.4 8.98,-2.55 17.92,-4.96 27.44,-5.38 5.67,-0.2 11.45,-1.35 17.07,-1.4 5.28,0.02 10.62,0.39 15.79,2.52 2.5,1.04 4.62,2.31 5.17,5.6 -1.5,4.69 -5.36,7.22 -9.37,9.71 -8.57,5.14 -17.72,8.31 -27.36,10.84 -8.74,2.3 -17.43,4.44 -26.39,5.19 -4.91,0.41 -9.59,1.22 -14.41,1.33 -4.67,0.16 -9.4,-0.03 -13.95,-0.84 -2.03,-0.41 -3.43,-0.15 -4.73,0.96 -7.63,5.92 -15.56,11.74 -22.08,18.96 -4.31,4.71 -7.71,9.68 -9.6,15.75 -1.33,4.07 -3.49,7.58 -8.11,8.74 -1.43,0.42 -3.09,0.44 -4.6,0.51 -1.65,0.02 -2.66,-1.09 -2.72,-2.6 0.08,-2.61 0.32,-5.19 1.02,-7.63 0.82,-2.9 1.11,-5.62 0.08,-8.39 -2.07,-1.42 -3.71,-0.89 -5.62,0.05 -6.08,3.38 -11.58,7.59 -15.69,13.35 -3.31,4.66 -6.62,9.33 -10.35,13.71 -2.53,3.08 -6.01,4.89 -10.02,6.22 -4.36,1.4 -7.76,0.6 -11.8,-2.04 0.35,-2.38 0.59,-4.95 1.13,-7.43 0.8,-3.4 1.87,-6.57 2.52,-10.01 0.16,-1.11 -0.46,-2.44 -0.78,-4.19 -12.19,6.27 -23.89,12.01 -35.38,18.14 -15.36,8.16 -30.57,16.37 -45.57,24.96 -17.39,10.06 -34.08,21.15 -50.27,33.36 -13.47,10.19 -27.02,20.69 -40.12,31.31 -7.71,6.22 -14.68,13.31 -22.02,19.96 -3.53,3.12 -7.02,6.09 -10.44,9.4 -2.07,2.05 -3.92,4.49 -5.58,6.83 -9.34,12.52 -18.69,25.04 -28.19,37.51 -7.4,9.77 -15.12,19.45 -22.94,28.94 -2.04,2.55 -5.18,4.3 -7.51,6.11 -3.4,-0.8 -4.67,-2.16 -4.89,-4.86 -0.48,-1.79 -1.05,-4.42 -1.46,-7.02 0.08,-0.3 0.32,-0.57 0.41,-0.87 -0.24,0.26 -0.33,0.57 -0.41,0.87z"/>
     <path class="fil1" d="M1415.74 194.32c-5.82,2.47 -11.79,4.89 -17.61,7.36 -8.87,3.9 -18.04,6.57 -27.57,8.14 -3.49,0.66 -6.76,0.55 -10.09,0.1 -3.65,-0.55 -6.48,-2.18 -7.7,-5.99 -1.23,-3.82 -0.66,-6.96 1.87,-10.03 3.77,-4.54 9.15,-5.48 14.29,-6.16 6.5,-0.79 13.06,-0.07 19.54,0.95 9.11,1.61 18.27,3.06 27.42,4.52 0.03,0.5 -0.06,0.8 -0.15,1.11z"/>
    </g>
    <g>
     <path class="fil1" d="M1959.55 76.73c-59.3,-39.18 -165.87,-50.92 -265.36,-16.24l-44.49 -29.19c-32.08,-21.19 -66.17,-9.29 -95.42,7.62l-39.29 22.63 40 26.42 39.99 26.42 8.26 40.48c8.16,-4.28 17.75,-7.82 28.49,-10.2 33.64,-7.41 63.74,-0.15 67.44,16.42 3.69,16.57 -20.63,35.87 -54.11,43.33 -10.94,2.49 -21.56,3.26 -30.97,2.72l9.27 45.05 -26.43 40 -26.42 39.99 45 5.41c33.68,3.99 69.74,1.4 90.74,-30.57l29.29 -44.3c105.23,-7.29 198.5,-60.08 237.73,-119.53l26.42 -39.99 -40.14 -26.47zm-116.04 82.27c-10.13,15.27 -30.64,19.49 -45.95,9.51 -15.31,-9.97 -19.49,-30.64 -9.51,-45.95 10.13,-15.26 30.64,-19.48 45.95,-9.51 15.42,10.18 19.63,30.69 9.51,45.95z"/>
    </g>
   </g>
  </g>
 </g>
</svg>
