<?xml version="1.0" encoding="UTF-8"?>
<!DOCTYPE svg PUBLIC "-//W3C//DTD SVG 1.1//EN" "http://www.w3.org/Graphics/SVG/1.1/DTD/svg11.dtd">
<!-- Creator: CorelDRAW 2018 (64 bitů) -->
<svg xmlns="http://www.w3.org/2000/svg" xml:space="preserve" width="86.6986mm" height="60.775mm" version="1.1" style="shape-rendering:geometricPrecision; text-rendering:geometricPrecision; image-rendering:optimizeQuality; fill-rule:evenodd; clip-rule:evenodd"
viewBox="0 0 8669.86 6077.5"
 xmlns:xlink="http://www.w3.org/1999/xlink">
 <defs>
  <style type="text/css">
   <![CDATA[
    .str0 {stroke:#2B2A29;stroke-width:50;stroke-miterlimit:22.9256}
    .str1 {stroke:#2B2A29;stroke-width:20;stroke-miterlimit:22.9256}
    .fil2 {fill:#FEFEFE}
    .fil1 {fill:#1F1B20}
    .fil3 {fill:#3E8EDD}
    .fil0 {fill:#4D134A}
    .fil4 {fill:#69C480}
    .fil6 {fill:#FEFEFE;fill-rule:nonzero}
    .fil5 {fill:black;fill-opacity:0.101961}
   ]]>
  </style>
 </defs>
 <g id="Vrstva_x0020_1">
  <metadata id="CorelCorpID_0Corel-Layer"/>
  <rect class="fil0" x="-0" y="0.01" width="8669.87" height="6077.47" rx="2738.53" ry="2106.96"/>
  <g id="_2008611358096">
   <g>
    <g>
     <path class="fil1" d="M3530.89 4653.06l0 -2514.54c0,-186.13 122.32,-308.26 308.36,-308.26l1312.71 0 0 792.67 475.74 0 0 2078.57c0,61.55 -47.24,150.07 -94.97,186.89 -65.7,50.68 -115.96,72.93 -208.97,72.93l-1484.51 0c-98.53,0 -174.56,-34.45 -223.69,-84.65 -58.41,-59.69 -84.67,-135.42 -84.67,-223.61zm1709.17 -2703.9c14.61,10.7 274.25,457.58 305.34,509.45 10.49,17.5 38.77,59.58 42.66,76.25l-348 0 0 -585.7zm-1792.87 136.52l0 2620.22c0,97.05 72.61,208.46 127.71,251.05 19.22,14.86 31.32,24.56 54.28,38.23 73.15,43.56 137.77,54.22 232.09,54.22l1431.65 0c139.21,0 218.69,-27.73 294.16,-93.47 74.3,-64.7 128.73,-157.17 128.73,-263.24l0 -2113.8c0,-8.46 -52.55,-92.77 -60.84,-106.51 -21.49,-35.59 -41.57,-70.54 -62.26,-105.11l-342.45 -578.04c-7.08,-11.83 -23.1,-47.05 -36.63,-47.05l-1369.98 0c-153.19,0 -283.68,66.17 -355.39,199.59 -17.7,32.94 -41.07,95.87 -41.07,143.91z"/>
     <polygon class="fil1" points="3733.52,3199.82 5336.97,3199.82 5336.97,3111.75 3733.52,3111.75 "/>
     <polygon class="fil1" points="3733.52,4503.33 5336.97,4503.33 5336.97,4415.26 3733.52,4415.26 "/>
     <path class="fil1" d="M3733.52 3635.79l1590.24 0c10.14,0 13.21,-3.06 13.21,-13.21l0 -74.86 -1603.45 0 0 88.07z"/>
     <path class="fil1" d="M3733.52 4067.36l1603.45 0 0 -74.86c0,-10.15 -3.07,-13.21 -13.21,-13.21l-1590.24 0 0 88.07z"/>
     <polygon class="fil1" points="3733.52,2763.85 5006.59,2763.85 5006.59,2675.78 3733.52,2675.78 "/>
     <path class="fil1" d="M3733.52 2332.28l1259.86 0c10.14,0 13.21,-3.06 13.21,-13.21l0 -74.86 -1273.07 0 0 88.07z"/>
    </g>
   </g>
   <path class="fil2 str0" d="M5336.97 4503.33l-1603.45 0 0 -88.07 1603.45 0 0 88.07zm0 -435.97l-1603.45 0 0 -88.07 1590.24 0c10.14,0 13.21,3.06 13.21,13.21l0 74.86zm-13.21 -431.57l-1590.24 0 0 -88.07 1603.45 0 0 74.86c0,10.15 -3.07,13.21 -13.21,13.21zm13.21 -435.97l-1603.45 0 0 -88.07 1603.45 0 0 88.07zm-330.38 -435.97l-1273.07 0 0 -88.07 1273.07 0 0 88.07zm-13.21 -431.57l-1259.86 0 0 -88.07 1273.07 0 0 74.86c0,10.15 -3.07,13.21 -13.21,13.21zm-1462.49 -193.76l0 2514.54c0,88.19 26.26,163.92 84.67,223.61 49.13,50.2 125.16,84.65 223.69,84.65l1484.51 0c93.01,0 143.27,-22.25 208.97,-72.93 47.73,-36.82 94.97,-125.34 94.97,-186.89l0 -2078.57 -475.74 0 0 -792.67 -1312.71 0c-186.04,0 -308.36,122.13 -308.36,308.26z"/>
   <path class="fil2 str1" d="M5240.06 2534.86l348 0c-3.89,-16.67 -32.17,-58.75 -42.66,-76.25 -31.09,-51.87 -290.73,-498.75 -305.34,-509.45l0 585.7z"/>
   <g>
    <ellipse class="fil3" cx="3827.46" cy="4365.3" rx="1086.57" ry="1101.38"/>
    <g>
     <path class="fil4" d="M2749.36 4225.64l4.23 58.9 11.99 3.17c0,0 14.46,49.02 11.99,64.54 -2.82,15.52 24.69,62.07 16.22,82.88 0,0 32.45,26.8 25.75,43.02 -6.35,16.23 8.46,6 8.46,6l6 13.05 8.11 0 11.99 2.11 36.68 56.78c0,0 15.51,0.71 17.63,7.05 2.12,6.35 23.63,52.9 17.63,77.24 -5.99,24.33 -14.46,37.03 -14.46,37.03l-4.23 38.79 -9.17 -4.94c0,0 23.28,87.82 23.28,95.93 0,8.11 8.11,39.5 8.11,39.5l0 20.45 8.11 14.46c0,0 -15.17,6 -5.29,10.93 0,0 -28.92,-6.34 -23.98,16.93 4.94,23.28 52.19,117.44 52.19,117.44l-2.11 0c0,0 -272.97,-331.15 -209.13,-801.26z"/>
    </g>
    <g>
     <path class="fil4" d="M4542.67 4737.36c0,0 -8.11,32.45 -16.93,33.86 -8.82,1.76 -18.69,43.73 -70.18,57.48l-16.23 27.51c0,0 -4.93,41.26 0,52.55 0,0 -6.34,-3.18 -33.85,34.91 0,0 -7.41,17.63 3.17,27.51 0,0 -31.38,48.67 33.15,26.8 0,0 96.99,-156.94 93.81,-179.51 -3.17,-22.57 7.41,-16.92 7.41,-16.92l0 13.75 13.05 -14.46c0,0 -7.41,-21.16 0,-39.5l-13.4 -23.98z"/>
    </g>
    <path class="fil4" d="M3483.26 3718.51c0,0 -18.34,38.09 -57.14,47.25l-15.51 11.29c0,0 -5.29,15.87 -11.29,15.87 -5.99,0 -7.76,25.04 -7.76,25.04 0,0 -0.7,13.4 -10.58,17.63l-9.87 10.93 -23.98 14.82 -26.45 6.34 -15.52 24.69 -20.1 13.4 -11.64 25.04c0,0 -18.34,16.58 -42.32,53.25 -23.63,36.68 -10.93,30.69 -10.93,30.69l9.17 15.51 -10.23 12.35c0,0 -4.94,-6 5.29,30.68l-16.58 40.91c0,0 -6.35,35.97 -21.51,32.8 0,0 14.46,11.99 14.46,31.38 0,0 -20.45,7.41 -10.23,25.39 10.23,17.64 24.34,16.58 24.34,16.58l9.17 29.27c0,0 26.45,19.4 34.56,62.42 0,0 77.23,77.24 96.98,81.47 19.75,4.23 26.45,-37.74 115.32,-6.35 0,0 106.16,-55.01 147.77,-34.56 0,0 28.57,34.91 31.74,51.84 0,0 58.19,-15.87 64.18,-7.05 6,8.82 53.26,22.92 16.58,79.35 0,0 14.11,31.39 -14.46,46.9l19.04 34.92c0,0 59.25,45.14 62.07,81.46 0,0 30.33,48.67 28.57,64.54l-11.28 7.05c0,0 38.79,51.85 11.63,73.71 -27.15,21.87 -37.38,69.48 -37.38,69.48 0,0 -4.94,43.02 2.82,51.84 7.41,8.46 38.09,47.61 57.84,82.52 0,0 -12.69,48.67 14.46,88.52 26.8,39.85 22.57,-3.88 38.44,56.07 0,0 28.57,22.58 6.35,26.46 0,0 5.29,15.16 8.46,24.33 2.83,9.17 0.71,-7.05 26.81,7.41 0,0 25.74,-17.28 82.87,-11.29 0,0 23.63,-14.46 31.39,-9.17 7.41,5.29 108.27,-63.13 105.09,-76.53 0,0 33.86,-11.99 41.62,-58.19 0,0 -14.46,6 2.11,-10.93 16.58,-16.93 53.26,-2.82 59.96,-62.77 0,0 -4.59,-33.51 -7.76,-37.03 0,0 54.31,-57.49 68.77,-58.55 14.46,-1.05 56.78,-27.86 62.77,-73.7 6,-45.85 8.82,-71.24 8.82,-71.24l-11.99 -13.4c0,0 0.71,-27.51 -5.64,-33.51l5.29 -15.87 -3.18 -4.93 5.29 -12c0,0 -22.57,-19.75 -8.46,-37.03 14.11,-17.28 25.04,-60.3 25.04,-60.3l18.69 -8.11c0,0 61.36,-105.8 84.99,-110.03 23.28,-3.88 94.52,-183.74 75.12,-221.48l-8.82 -2.47 -2.82 6 -6.35 4.23 -16.57 9.17 -23.28 1.76c0,0 -15.16,17.64 -27.86,10.23 0,0 -26.45,27.86 -41.61,-10.93l-14.46 -7.06 11.63 -7.05c0,0 -2.11,-19.4 -27.86,-39.5 -25.74,-20.1 -33.85,-26.8 -33.85,-26.8l-20.46 -10.23 -20.45 -52.19c0,0 -35.62,-13.4 -38.79,-61.01l-8.47 -22.57 -2.11 -7.06c0,0 -43.74,-21.16 -31.39,-42.67l-52.2 -72.3 -23.63 -33.85 -8.46 -7.06 3.88 -7.4 38.79 46.2c0,0 4.94,13.4 5.29,-34.56l4.94 25.39 9.87 2.82 49.73 63.48 -0.7 6c0,0 41.61,12.34 41.61,57.13l23.28 35.97c0,0 25.74,0.7 43.02,50.08 0,0 33.86,19.04 26.45,51.13l16.23 45.85 6.34 19.05 10.94 1.05 16.57 -7.4 7.41 -13.4c0,0 21.51,3.17 34.56,-15.52 0,0 13.05,8.46 20.45,-14.46l40.91 -20.1c0,0 -15.51,-25.4 31.74,-34.56l4.94 -17.64 9.17 -3.17c0,0 0,-26.81 11.99,-20.1 0,0 -13.05,-43.74 2.12,-35.98 0,0 5.29,-20.45 7.05,-37.73 0,0 -23.28,-14.11 -25.04,-25.04 0,0 -33.85,6.35 -44.08,-52.2l-17.64 45.14 -20.1 -1.76c0,0 -6.35,10.93 -16.57,-4.23 0,0 -1.77,-28.21 -6.35,-32.45 -4.59,-4.23 -8.47,-1.76 -8.47,-1.76 0,0 -2.82,17.63 5.29,27.86 0,0 -24.68,-24.33 -20.1,-32.8 4.59,-8.46 -36.32,-34.21 -36.32,-34.21 0,0 -26.81,-33.15 -13.76,-33.15 13.05,0 21.87,-8.11 21.87,-8.11l35.62 46.91c0,0 30.68,2.46 36.32,22.57l16.23 7.4c0,0 17.63,-49.37 37.03,7.41 0,0 70.18,21.16 97.69,6.35l6.34 13.75 9.88 3.88c0,0 41.97,71.24 65.6,83.93l6.34 0.71 53.26 136.84 29.27 101.21c0,0 1.41,4.59 4.58,-46.9 0,-1.41 0,-2.82 0.35,-4.24 3.18,-55.72 -20.1,-110.73 -20.1,-110.73l-8.81 -112.5 -0.36 -13.4c0,0 -161.87,-514.19 -738.48,-667.6l-66.66 -12.7 -6.34 4.59 15.87 11.63 44.78 10.23 -39.49 -16.93 52.54 7.41 35.98 16.22 -30.69 -3.88 -0.7 5.65c0,0 -23.98,1.05 -25.04,1.05 -1.06,0 -10.23,3.53 -10.23,3.53l-31.38 15.52 -33.86 1.76c0,0 -14.81,-13.75 -3.17,-11.64 11.63,2.12 69.82,4.94 8.81,-13.75 0,0 -70.18,-13.75 -71.59,-11.28 -1.06,2.46 -63.83,-30.33 -135.78,35.97 0,0 -55.72,13.75 -62.77,22.22 -6.7,8.46 -15.52,56.07 52.9,18.69l26.8 30.68 -6.7 0.7 9.88 13.05 13.4 -2.82c0,0 -8.11,-9.87 15.51,-8.82 0,0 7.76,0.71 10.23,-24.33 0,0 49.02,-9.87 3.88,-19.75 0,0 -21.87,-13.75 28.21,-28.21 0,0 1.77,-18.69 25.75,-10.23 0,0 18.69,3.53 -22.57,17.28 0,0 12.69,14.81 3.17,24.69l25.39 5.99 51.49 -8.11c0,0 -1.05,6.35 17.28,7.76l-17.63 2.82c0,0 -45.14,-3.52 -43.38,2.47 2.12,6 -3.52,7.76 14.46,9.88 0,0 -6.35,2.46 1.06,8.11 7.41,5.64 -10.93,5.99 -13.75,2.46 -2.83,-3.52 -29.98,-16.22 -17.64,19.05 0,0 -15.87,15.87 -30.68,10.23 0,0 -10.23,-9.88 -25.74,1.76 0,0 -42.32,11.64 -38.44,-0.71 0,0 -28.22,4.59 -27.86,3.18 0.35,-1.41 -13.76,-4.94 -13.76,-4.94 0,0 -0.35,-9.17 -1.76,-9.17 -1.06,0 11.99,-11.64 11.99,-11.64l0.35 -13.4 -16.93 5.29 -13.05 4.94 -3.87 14.46c0,0 13.04,6.7 -0.36,17.28l-44.43 9.17 -6.35 9.17c0,0 -37.03,22.92 -38.8,17.63 -1.76,-5.29 -9.16,12.7 -9.16,12.7l-18.7 4.58 -4.58 5.64 -14.81 -2.11 0 -3.88 -10.58 1.06c0,0 6.35,10.22 -0.35,14.1 -6.7,3.88 -15.87,1.06 -15.87,1.06l-4.59 -4.93 -22.57 5.99 0.71 6.35 26.8 8.11c0,0 20.45,27.16 -7.76,60.66l-83.58 0.7c0,0 -6.35,-3.87 -16.93,0.36 -10.58,4.58 -15.52,-0.71 -14.11,18.69l-3.52 17.63 -27.16 39.5 5.64 3.53 4.59 2.46 -12.7 24.34c0,0 16.23,-5.29 16.23,0.35 0,0 24.68,-15.52 25.39,7.41 0.71,22.57 16.22,1.06 16.58,2.47 0.35,1.05 10.57,-1.77 10.57,-1.77l6.71 -3.88 30.32 -0.35 11.64 -3.17c0,0 7.76,-14.46 18.34,-13.4 10.58,1.05 2.12,-0.71 2.12,-0.71 0,0 10.22,-19.75 19.39,-16.58 9.17,3.18 -5.99,-5.64 -5.99,-5.64 0,0 0,-18.34 24.33,-28.56 0,0 2.47,-8.82 15.52,-8.12 13.05,0.71 28.21,-13.75 28.21,-13.75 0,0 -15.52,-27.51 25.39,-25.04 0,0 19.75,12.7 33.51,8.11 0,0 17.63,-26.8 39.14,-21.51 21.52,5.29 22.57,17.63 22.57,17.63l21.87 21.52 21.87 11.99c0,0 12.69,-3.18 11.63,3.17 0,0 18.7,6 17.28,13.05 -1.05,6.7 8.47,2.47 8.47,2.47l10.58 9.87 3.88 13.05 -6.7 2.83 -3.88 6.7 2.82 5.64 8.11 -6.35 9.87 -11.99 6.71 -8.82 -11.64 -5.29c0,0 -2.82,-15.87 7.4,-14.81 0,0 19.05,8.11 19.05,14.46 0,6.35 4.58,-8.46 4.58,-8.46 0,0 -40.55,-22.93 -46.2,-21.17l7.41 -3.87c0,0 -5.99,-6 -17.63,-1.06 0,0 -16.23,-4.94 -27.86,-26.8 0,0 -34.21,-15.52 -14.11,-21.87 0,0 -13.05,-8.11 3.17,-10.58 16.23,-2.47 14.81,0.71 14.81,0.71l-3.87 0.7 4.93 12.7 8.11 -12.7 14.82 19.4 16.57 14.46 3.53 -2.82 52.9 26.8c0,0 -9.17,20.45 -0.71,25.04 0,0 14.11,10.58 21.16,21.16 6.7,10.58 1.77,9.17 1.77,9.17l18.69 5.29 22.57 2.11 16.93 6 3.52 -3.53 6.35 -2.47 -28.21 -25.04 -9.17 -17.28 10.93 3.53 8.11 0 4.93 -6.35c0,0 27.51,-4.94 34.92,3.88 7.4,8.81 17.28,-5.29 17.28,-5.29l5.99 -3.18 28.57 5.65 -6.35 6.35 -29.27 -0.36c0,0 -28.21,2.83 -17.28,11.99 10.93,9.17 17.63,0 17.63,0 0,0 0.36,38.09 16.93,44.79 16.58,6.7 13.75,2.82 13.75,2.82l25.4 15.87c0,0 13.75,1.06 13.75,-3.52 0,-4.94 1.76,-13.05 1.76,-13.05l39.15 16.93c0,0 17.28,0 18.34,-2.47 0.7,-2.47 4.58,-14.81 19.39,-9.17l3.18 3.17 5.64 -8.46c0,0 18.34,2.82 2.12,10.23 0,0 6.7,25.74 13.05,35.97 0,0 -10.58,29.27 -9.88,52.19 0,0 -3.52,28.57 -52.19,5.65 0,0 -10.23,-11.64 -40.56,11.28l-62.42 -16.22 -11.29 4.58 -8.46 -9.17 -21.51 -3.88c0,0 -22.57,2.83 -15.52,-8.46 7.4,-11.29 -56.08,-5.64 -57.49,12.7 0,0 2.83,5.99 6.35,17.63 3.53,11.64 -23.27,21.16 -36.67,7.41 -13.41,-13.76 -44.44,-13.05 -44.44,-13.05 0,0 -20.1,-10.58 -14.11,-18.34 6,-7.76 -41.26,-13.76 -41.26,-13.76 0,0 -33.15,2.83 -39.15,-14.1l-3.88 -4.94c0,0 -20.1,13.4 -9.87,-9.17 0,0 16.22,-2.11 14.11,-19.75 0,0 -15.87,-16.22 -9.88,-16.22 6,0 13.76,-11.29 13.76,-11.29l-14.11 4.59 -6 -8.82c0,0 -21.51,-0.7 -21.16,4.94 0.36,5.64 -29.97,-2.12 -29.97,-2.12 0,0 -2.47,6 -10.94,1.77 -8.46,-4.59 -20.45,16.92 -27.15,4.93 -6.35,-11.99 -47.61,3.88 -47.61,3.88l-25.39 1.76 -16.58 8.47 -2.82 3.88 -6.35 -2.12 -6.35 2.47 -28.21 13.4 -9.17 0 -4.58 -7.75 -7.41 3.87c0,0 -32.09,5.29 -27.15,-10.93l-13.4 0.71z"/>
    <g>
     <polygon class="fil4" points="3762.92,3592.96 3760.8,3606.71 3757.98,3615.18 3754.81,3618.7 3749.52,3615.53 3745.29,3605.65 3750.93,3598.95 3758.34,3598.95 "/>
    </g>
    <path class="fil4" d="M3746.35 3626.81l-7.76 1.06 -1.06 4.94 4.58 8.46 -2.11 7.41c0,0 -2.12,13.4 -0.71,13.05 1.41,-0.35 7.41,-2.12 7.41,-2.12l7.76 -3.52 5.64 -2.47 4.94 -21.87 -6 -9.17 -12.69 4.23z"/>
    <path class="fil4" d="M3811.24 3674.42c0,0 -4.24,3.53 -4.24,4.24 0,0.7 4.24,7.05 4.24,7.05l5.64 0 15.87 5.29 9.87 3.53c0,0 5.65,5.99 6.35,5.99 0.71,0 7.05,0 7.05,0l3.88 -13.05 -5.29 -4.58c0,0 7.41,-7.41 8.82,-8.47 1.41,-1.05 -5.29,-4.23 -5.29,-4.23l-4.94 4.23 -16.57 3.18 -11.99 -2.82 -6 -1.06 -7.76 -0.71 0 1.41 0.36 0z"/>
    <polygon class="fil4" points="3962.88,3679.01 3974.52,3686.41 3974.52,3693.82 3976.64,3695.58 3981.57,3695.58 3987.92,3702.64 3990.39,3698.41 4001.68,3702.64 3992.51,3685.36 3999.56,3685.36 3993.92,3679.01 3978.4,3674.78 3960.77,3677.6 "/>
    <path class="fil4" d="M4010.14 3723.45l3.88 2.82c0,0 17.28,3.88 18.34,3.88 1.05,0 20.1,1.76 20.1,1.76l6.35 -2.82 -48.67 -5.64z"/>
    <polygon class="fil4" points="4200.58,3718.51 4191.41,3726.62 4193.17,3734.73 4186.47,3734.73 4180.12,3739.67 4170.6,3737.9 4162.84,3731.2 4172.01,3729.09 4172.72,3724.86 4185.77,3725.91 "/>
    <polygon class="fil4" points="3651.13,3643.04 3650.07,3648.33 3653.59,3647.27 3653.59,3652.21 3646.19,3654.67 3641.6,3651.15 3637.02,3650.8 "/>
    <path class="fil4" d="M3630.67 3404.28l13.05 -6.7 4.58 -4.58 -22.21 0 -8.82 9.17 -5.29 7.4 -3.88 -8.46 -3.88 3.88 0 7.4 -8.46 10.23 11.99 0 6.35 0 -10.94 7.41 0 7.4 15.87 -3.88c0,0 6.7,24.69 -16.22,16.58l-2.82 5.99 -4.59 0c0,0 11.99,1.77 3.88,6.35 -8.11,4.94 -17.28,5.29 -17.28,5.29l0 5.29c0,0 36.68,-4.93 3.18,9.88 -33.51,14.81 -12.7,9.17 -12.7,9.17l20.1 -3.18 21.16 -3.88 49.73 -8.11 -4.94 -3.88c0,0 26.81,-9.87 13.4,-17.63l-16.22 0.71c0,0 6,-18.7 -9.17,-21.16 0,0 11.99,-12.7 -16.93,-15.52 0,0 24.69,-9.88 25.75,-14.46 1.41,-5.65 -24.69,-0.71 -24.69,-0.71z"/>
    <polygon class="fil4" points="3566.13,3432.85 3560.49,3435.32 3569.31,3438.84 3552.03,3440.96 3543.21,3440.96 3539.33,3449.42 3539.33,3454.36 3544.97,3454.36 3534.04,3460 3523.11,3467.76 3523.11,3473.76 3528.75,3476.58 3553.08,3468.82 3572.13,3464.94 3584.47,3454.71 3580.94,3442.72 3594.35,3440.61 3594.35,3432.85 3587.65,3428.97 "/>
    <path class="fil4" d="M3550.62 3340.45c0,0 11.28,-6.7 -1.06,-6l-3.53 2.83 -6.7 1.05 -8.46 1.77 9.16 2.11 -12.69 4.59 -3.88 1.41 12.7 0 -12.7 4.93 16.22 2.83c0,0 25.04,-6.7 28.22,-3.88 3.17,2.82 37.73,-13.05 37.73,-13.05 0,0 -4.23,-11.29 -10.58,-8.47 -6.35,2.83 -26.45,5.65 -26.45,5.65l-9.17 2.47 -8.81 1.76z"/>
    <path class="fil4" d="M3429.3 3340.1l-92.4 52.54 3.88 4.59 -3.88 2.82c0,0 5.64,10.23 13.05,-4.23 0,0 74.76,-35.27 94.51,-43.73 19.75,-8.47 82.88,-23.98 82.88,-23.98l70.88 -15.87c0,0 54.32,-29.27 74.06,-25.75l43.03 -13.05 17.63 -2.11 0 -3.53c0,0.35 -112.5,0.35 -303.64,72.3z"/>
    <path class="fil5" d="M4913.67 4365.3c0,608.35 -486.32,1101.38 -1086.56,1101.38 -116.38,0 -228.53,-18.7 -333.98,-52.9 71.24,14.81 144.95,22.92 220.42,22.92 599.88,0 1086.56,-493.03 1086.56,-1101.38 0,-490.2 -315.99,-905.65 -752.59,-1048.48 494.44,102.98 866.15,546.64 866.15,1078.46z"/>
    <polygon class="fil4" points="3608.45,3439.2 3604.22,3442.72 3602.1,3442.72 3603.16,3440.25 3605.28,3439.2 3607.39,3438.14 "/>
   </g>
  </g>
  <path class="fil6" d="M2331.86 998.09l50.68 -4.56c2.37,20.5 7.97,37.3 16.8,50.49 8.82,13.1 22.49,23.72 40.99,31.89 18.51,8.06 39.39,12.14 62.54,12.14 20.6,0 38.72,-3.03 54.47,-9.2 15.76,-6.17 27.43,-14.62 35.12,-25.34 7.68,-10.72 11.58,-22.4 11.58,-34.92 0,-12.72 -3.71,-23.82 -11.11,-33.41 -7.4,-9.49 -19.64,-17.46 -36.72,-24.01 -10.92,-4.17 -35.12,-10.82 -72.6,-19.83 -37.49,-9.02 -63.68,-17.46 -78.67,-25.44 -19.46,-10.24 -33.88,-22.96 -43.37,-38.05 -9.59,-15.09 -14.33,-32.08 -14.33,-50.77 0,-20.69 5.88,-39.95 17.55,-57.8 11.68,-17.93 28.66,-31.5 51.15,-40.8 22.4,-9.3 47.36,-13.95 74.79,-13.95 30.17,0 56.84,4.84 79.9,14.61 23.06,9.68 40.81,24.01 53.24,42.99 12.43,18.89 19.07,40.33 20.02,64.25l-51.81 3.98c-2.75,-25.71 -12.15,-45.17 -28.19,-58.26 -16.04,-13.2 -39.76,-19.74 -71.08,-19.74 -32.64,0 -56.46,5.98 -71.36,17.93 -14.9,11.96 -22.4,26.38 -22.4,43.28 0,14.61 5.32,26.66 15.85,36.15 10.44,9.4 37.49,19.17 81.33,29.04 43.84,9.97 73.93,18.6 90.25,26.01 23.63,10.91 41.19,24.67 52.48,41.47 11.29,16.7 16.89,35.96 16.89,57.79 0,21.73 -6.17,42.04 -18.6,61.21 -12.43,19.17 -30.18,34.07 -53.43,44.7 -23.25,10.63 -49.35,15.94 -78.48,15.94 -36.82,0 -67.66,-5.41 -92.53,-16.13 -24.96,-10.72 -44.41,-26.86 -58.55,-48.49 -14.24,-21.55 -21.64,-45.94 -22.4,-73.17z"/>
  <path id="1" class="fil6" d="M2924.61 1033.39l51.81 6.83c-8.06,30.09 -23.15,53.53 -45.17,70.13 -22.02,16.61 -50.11,24.96 -84.37,24.96 -43.08,0 -77.24,-13.28 -102.49,-39.85 -25.24,-26.48 -37.86,-63.78 -37.86,-111.7 0,-49.54 12.71,-88.07 38.24,-115.4 25.53,-27.43 58.65,-41.09 99.36,-41.09 39.39,0 71.56,13.38 96.52,40.24 24.95,26.85 37.48,64.62 37.48,113.31 0,2.94 -0.09,7.4 -0.28,13.28l-220.08 0c1.9,32.36 11.01,57.23 27.52,74.4 16.42,17.18 37.02,25.82 61.59,25.82 18.32,0 33.98,-4.84 46.89,-14.52 13,-9.68 23.25,-25.15 30.84,-46.41zm-163.99 -80.28l164.56 0c-2.19,-24.87 -8.54,-43.47 -18.89,-55.9 -15.85,-19.27 -36.53,-28.95 -61.87,-28.95 -22.97,0 -42.23,7.69 -57.89,23.07 -15.57,15.37 -24.2,35.96 -25.91,61.78z"/>
  <path id="2" class="fil6" d="M3013.24 1129.05l0 -40.81 187.15 -215.99c-21.26,1.14 -39.96,1.71 -56.09,1.71l-119.67 0 0 -40.43 240.86 0 0 32.93 -160.19 187.33 -30.66 34.83c22.49,-1.9 43.56,-2.84 63.21,-2.84l136.75 0 0 43.27 -261.36 0z"/>
  <path id="3" class="fil6" d="M3324.42 1129.05l0 -295.52 44.98 0 0 41.95c21.64,-32.17 52.96,-48.21 93.86,-48.21 17.84,0 34.16,3.22 49.06,9.58 14.9,6.36 26.1,14.81 33.5,25.15 7.4,10.35 12.62,22.68 15.57,36.92 1.8,9.3 2.75,25.53 2.75,48.68l0 181.45 -50.11 0 0 -179.55c0,-20.4 -1.9,-35.68 -5.79,-45.74 -3.89,-10.06 -10.82,-18.13 -20.69,-24.2 -9.87,-5.98 -21.54,-9.02 -34.82,-9.02 -21.26,0 -39.58,6.74 -55.05,20.31 -15.47,13.48 -23.15,39.19 -23.15,76.96l0 161.24 -50.11 0z"/>
  <path id="4" class="fil6" d="M3834.13 1092.04c-18.6,15.85 -36.54,26.95 -53.72,33.5 -17.17,6.55 -35.58,9.77 -55.32,9.77 -32.46,0 -57.42,-7.87 -74.88,-23.72 -17.46,-15.76 -26.19,-35.97 -26.19,-60.55 0,-14.42 3.32,-27.61 9.87,-39.57 6.64,-11.96 15.28,-21.45 25.91,-28.66 10.72,-7.21 22.68,-12.72 36.06,-16.42 9.87,-2.56 24.77,-5.03 44.6,-7.5 40.43,-4.74 70.32,-10.53 89.4,-17.17 0.19,-6.84 0.28,-11.2 0.28,-13 0,-20.31 -4.74,-34.64 -14.23,-42.99 -12.82,-11.3 -31.89,-16.9 -57.13,-16.9 -23.63,0 -41.1,4.18 -52.29,12.44 -11.3,8.25 -19.55,22.87 -24.96,43.93l-48.97 -6.83c4.46,-20.97 11.77,-37.96 22.02,-50.86 10.25,-12.91 25.05,-22.78 44.41,-29.8 19.26,-6.93 41.76,-10.44 67.19,-10.44 25.24,0 45.84,2.94 61.68,8.92 15.76,5.98 27.43,13.38 34.83,22.39 7.4,9.02 12.62,20.41 15.66,34.17 1.61,8.54 2.47,23.91 2.47,46.03l0 66.43c0,46.4 1.04,75.73 3.13,88.16 1.99,12.43 6.17,24.29 12.24,35.68l-52.38 0c-5.03,-10.53 -8.26,-22.87 -9.68,-37.01zm-3.99 -111.03c-18.22,7.4 -45.55,13.66 -81.99,18.79 -20.69,2.94 -35.31,6.26 -43.85,9.96 -8.54,3.7 -15.09,9.11 -19.74,16.13 -4.65,7.12 -7.02,15 -7.02,23.73 0,13.19 5.03,24.29 15.19,33.12 10.15,8.82 24.95,13.28 44.41,13.28 19.26,0 36.44,-4.17 51.53,-12.62 14.99,-8.35 26.1,-19.83 33.12,-34.35 5.41,-11.29 8.07,-27.9 8.07,-49.82l0.28 -18.22z"/>
  <path id="5" class="fil6" d="M3957.78 1129.05l0 -295.52 44.98 0 0 41.76c9.21,-14.43 21.55,-26.1 36.92,-34.83 15.37,-8.83 32.83,-13.19 52.48,-13.19 21.83,0 39.76,4.55 53.71,13.57 13.95,9.11 23.82,21.73 29.52,38.05 23.53,-34.45 53.99,-51.62 91.57,-51.62 29.42,0 52.1,8.06 67.86,24.29 15.85,16.23 23.82,41.19 23.82,74.88l0 202.61 -50.11 0 0 -186c0,-19.93 -1.71,-34.36 -4.93,-43.18 -3.23,-8.83 -9.11,-15.85 -17.75,-21.26 -8.54,-5.41 -18.6,-8.07 -30.08,-8.07 -20.88,0 -38.15,6.93 -51.91,20.69 -13.76,13.86 -20.6,35.97 -20.6,66.34l0 171.48 -50.1 0 0 -191.79c0,-22.21 -4.09,-38.91 -12.25,-50.02 -8.16,-11.1 -21.54,-16.7 -40.04,-16.7 -14.05,0 -27.05,3.7 -39.01,11.11 -11.96,7.4 -20.59,18.22 -26,32.55 -5.32,14.23 -7.97,34.82 -7.97,61.68l0 153.17 -50.11 0z"/>
  <path id="6" class="fil6" d="M4429.81 1242.65l-5.69 -46.32c11.01,2.95 20.5,4.46 28.66,4.46 11.2,0 20.12,-1.89 26.76,-5.59 6.74,-3.71 12.24,-8.93 16.51,-15.57 3.13,-5.03 8.26,-17.46 15.28,-37.39 0.95,-2.75 2.37,-6.83 4.46,-12.24l-112.17 -296.47 53.52 0 61.69 170.63c8.07,21.54 15.18,44.32 21.54,68.23 5.79,-22.49 12.62,-44.69 20.59,-66.52l63.02 -172.34 50.01 0 -111.7 300.64c-12.05,32.37 -21.44,54.57 -28.18,66.81 -8.92,16.42 -19.17,28.47 -30.65,36.16 -11.58,7.69 -25.34,11.48 -41.29,11.48 -9.68,0 -20.49,-1.99 -32.36,-5.97z"/>
  <path id="7" class="fil6" d="M4874.99 1242.36l0 -408.83 45.55 0 0 38.82c10.73,-15 22.87,-26.29 36.44,-33.79 13.48,-7.5 29.9,-11.29 49.16,-11.29 25.25,0 47.45,6.45 66.72,19.45 19.26,12.91 33.78,31.22 43.65,54.76 9.78,23.63 14.71,49.44 14.71,77.63 0,30.08 -5.41,57.22 -16.23,81.42 -10.82,24.11 -26.57,42.61 -47.26,55.52 -20.59,12.81 -42.32,19.26 -65.1,19.26 -16.7,0 -31.7,-3.51 -44.89,-10.53 -13.28,-7.02 -24.1,-15.85 -32.64,-26.57l0 144.15 -50.11 0zm45.55 -259.27c0,37.87 7.69,65.86 22.97,83.99 15.37,18.13 33.97,27.24 55.8,27.24 22.21,0 41.19,-9.4 56.94,-28.19 15.85,-18.79 23.72,-47.83 23.72,-87.21 0,-37.58 -7.68,-65.67 -23.15,-84.37 -15.47,-18.69 -33.88,-27.99 -55.33,-27.99 -21.26,0 -40.05,9.96 -56.37,29.8 -16.42,19.92 -24.58,48.77 -24.58,86.73z"/>
  <polygon id="8" class="fil6" points="5190.53,1129.05 5190.53,721.36 5240.64,721.36 5240.64,1129.05 "/>
  <path id="9" class="fil6" d="M5511.2 1092.04c-18.6,15.85 -36.54,26.95 -53.72,33.5 -17.17,6.55 -35.58,9.77 -55.32,9.77 -32.46,0 -57.42,-7.87 -74.88,-23.72 -17.46,-15.76 -26.19,-35.97 -26.19,-60.55 0,-14.42 3.32,-27.61 9.87,-39.57 6.64,-11.96 15.28,-21.45 25.91,-28.66 10.72,-7.21 22.68,-12.72 36.06,-16.42 9.87,-2.56 24.77,-5.03 44.6,-7.5 40.43,-4.74 70.32,-10.53 89.4,-17.17 0.19,-6.84 0.28,-11.2 0.28,-13 0,-20.31 -4.74,-34.64 -14.23,-42.99 -12.82,-11.3 -31.89,-16.9 -57.13,-16.9 -23.63,0 -41.1,4.18 -52.29,12.44 -11.3,8.25 -19.55,22.87 -24.96,43.93l-48.97 -6.83c4.46,-20.97 11.77,-37.96 22.02,-50.86 10.25,-12.91 25.05,-22.78 44.41,-29.8 19.26,-6.93 41.76,-10.44 67.19,-10.44 25.24,0 45.84,2.94 61.68,8.92 15.76,5.98 27.43,13.38 34.83,22.39 7.4,9.02 12.62,20.41 15.66,34.17 1.61,8.54 2.47,23.91 2.47,46.03l0 66.43c0,46.4 1.04,75.73 3.13,88.16 1.99,12.43 6.17,24.29 12.24,35.68l-52.38 0c-5.03,-10.53 -8.26,-22.87 -9.68,-37.01zm-3.99 -111.03c-18.22,7.4 -45.55,13.66 -81.99,18.79 -20.69,2.94 -35.31,6.26 -43.85,9.96 -8.54,3.7 -15.09,9.11 -19.74,16.13 -4.65,7.12 -7.02,15 -7.02,23.73 0,13.19 5.03,24.29 15.19,33.12 10.15,8.82 24.95,13.28 44.41,13.28 19.26,0 36.44,-4.17 51.53,-12.62 14.99,-8.35 26.1,-19.83 33.12,-34.35 5.41,-11.29 8.07,-27.9 8.07,-49.82l0.28 -18.22z"/>
  <path id="10" class="fil6" d="M5634.85 1129.05l0 -295.52 44.98 0 0 41.95c21.64,-32.17 52.96,-48.21 93.86,-48.21 17.84,0 34.16,3.22 49.06,9.58 14.9,6.36 26.1,14.81 33.5,25.15 7.4,10.35 12.62,22.68 15.57,36.92 1.8,9.3 2.75,25.53 2.75,48.68l0 181.45 -50.11 0 0 -179.55c0,-20.4 -1.9,-35.68 -5.79,-45.74 -3.89,-10.06 -10.82,-18.13 -20.69,-24.2 -9.87,-5.98 -21.54,-9.02 -34.82,-9.02 -21.26,0 -39.58,6.74 -55.05,20.31 -15.47,13.48 -23.15,39.19 -23.15,76.96l0 161.24 -50.11 0z"/>
  <path id="11" class="fil6" d="M6153.1 1033.39l51.81 6.83c-8.06,30.09 -23.15,53.53 -45.17,70.13 -22.02,16.61 -50.11,24.96 -84.37,24.96 -43.08,0 -77.24,-13.28 -102.49,-39.85 -25.24,-26.48 -37.86,-63.78 -37.86,-111.7 0,-49.54 12.71,-88.07 38.24,-115.4 25.53,-27.43 58.65,-41.09 99.36,-41.09 39.39,0 71.56,13.38 96.52,40.24 24.95,26.85 37.48,64.62 37.48,113.31 0,2.94 -0.09,7.4 -0.28,13.28l-220.08 0c1.9,32.36 11.01,57.23 27.52,74.4 16.42,17.18 37.02,25.82 61.59,25.82 18.32,0 33.98,-4.84 46.89,-14.52 13,-9.68 23.25,-25.15 30.84,-46.41zm-163.99 -80.28l164.56 0c-2.19,-24.87 -8.54,-43.47 -18.89,-55.9 -15.85,-19.27 -36.53,-28.95 -61.87,-28.95 -22.97,0 -42.23,7.69 -57.89,23.07 -15.57,15.37 -24.2,35.96 -25.91,61.78z"/>
  <path id="12" class="fil6" d="M6376.97 1084.35l6.83 44.23c-14.05,2.94 -26.67,4.46 -37.68,4.46 -18.12,0 -32.17,-2.85 -42.23,-8.64 -9.96,-5.79 -16.98,-13.29 -21.06,-22.68 -4.09,-9.4 -6.08,-29.14 -6.08,-59.22l0 -170.25 -37.01 0 0 -38.72 37.01 0 0 -73.07 50.11 -30.08 0 103.15 50.11 0 0 38.72 -50.11 0 0 173.1c0,14.33 0.85,23.53 2.66,27.61 1.7,4.08 4.55,7.31 8.54,9.78 3.98,2.37 9.68,3.6 17.08,3.6 5.5,0 12.81,-0.66 21.83,-1.99z"/>
 </g>
</svg>
