<?xml version="1.0" encoding="UTF-8"?>
<!DOCTYPE svg PUBLIC "-//W3C//DTD SVG 1.1//EN" "http://www.w3.org/Graphics/SVG/1.1/DTD/svg11.dtd">
<!-- Creator: CorelDRAW 2018 (64 bitů) -->
<svg xmlns="http://www.w3.org/2000/svg" xml:space="preserve" width="86.6986mm" height="60.775mm" version="1.1" style="shape-rendering:geometricPrecision; text-rendering:geometricPrecision; image-rendering:optimizeQuality; fill-rule:evenodd; clip-rule:evenodd"
viewBox="0 0 8669.86 6077.5"
 xmlns:xlink="http://www.w3.org/1999/xlink">
 <defs>
  <style type="text/css">
   <![CDATA[
    .str0 {stroke:black;stroke-width:20;stroke-miterlimit:22.9256}
    .fil2 {fill:#FEFEFE}
    .fil3 {fill:#2B2A29}
    .fil0 {fill:#4D134A}
    .fil1 {fill:#B3D4F5}
    .fil4 {fill:#FEFEFE;fill-rule:nonzero}
   ]]>
  </style>
 </defs>
 <g id="Vrstva_x0020_1">
  <metadata id="CorelCorpID_0Corel-Layer"/>
  <g id="_2008609434000">
   <rect class="fil0" x="-0" y="0.01" width="8669.87" height="6077.47" rx="2738.53" ry="2106.96"/>
   <path class="fil1 str0" d="M6274.87 3339.12l0 91.43c-15.32,191.65 -126.37,372.51 -309.73,465.83 -70.08,35.67 -120.64,49.48 -216.09,60.53 -69.55,-0.13 -520.03,-6.58 -544.65,5.35l-1760.69 0c-27.4,-13.25 -201.11,-4.19 -247.57,-4.54 -93,-0.69 -158.05,-21.72 -236.24,-25.9l-38.86 -14.54c-16.09,-5.46 -16.84,-6.12 -33.08,-12.63 -61.71,-24.73 -136.46,-65.72 -187.22,-102.37 -213.21,-153.93 -318.5,-382.53 -327.63,-613.51l0 -63.94c11.68,-316.81 202.39,-625.53 541.91,-739.2 51.38,-17.2 262.01,-70.05 326.84,-38.94 33.1,-142.06 198.71,-341.53 320.12,-426.71 38.54,-27.04 70.77,-50.86 116.71,-73.81 142.13,-71 256.03,-109.25 439.54,-109.14 317.64,0.21 588.53,147.9 752.29,367.95 88.31,118.67 77.37,120.85 131.71,234.09 191.03,0 336.46,56.89 447.54,139.24 94.66,70.17 217.8,212.49 245.93,333.23 203.13,0 337.44,81.27 440.31,199.83 84.98,97.94 129.59,212.61 138.86,327.75z"/>
   <path class="fil1 str0" d="M4783.37 3491.17c28.37,-18.21 102.36,-7.17 142.05,-7.17l0.12 -667.63 -121.73 0.94 -17.64 -8.49c-87.05,-8.68 -78.46,-126.25 25.04,-129.61 84.47,-2.73 174.64,0.29 259.6,0.35 76.36,0.05 197.98,-23.08 193.45,70.84 -4.2,87.15 -122.68,61.93 -200.3,64.15l2.71 671.75c78.29,2.38 203.1,-23.83 197.56,71.86 -4.98,86 -125.55,62.99 -201.04,63.09 -81.66,0.11 -179.74,4.98 -259.57,-0.03 -104.79,-6.59 -91.24,-118.95 -20.25,-130.05z"/>
   <path class="fil1 str0" d="M4120.34 2765.82c0,-87.39 44.29,-87.21 127.43,-86.34 173.31,1.82 390.12,-36.09 463.66,178.92 47.04,137.54 -16.46,244.63 -90.08,303.85 -99.31,79.89 -223.98,48.53 -363,56.13 -9.79,103.04 13.19,333.54 -15.27,373.39 -16.41,22.96 -56.71,40.24 -91.59,17.33 -49.23,-32.36 -29.25,-159.03 -29.25,-226.01l-1.9 -617.27z"/>
   <path class="fil2" d="M2904.92 2604.87c-161.62,71.69 -292.04,211.53 -336.49,421.12 -55.34,260.96 98.67,583.98 212.09,517.31 50.63,-29.77 23.96,-85.4 -1.47,-120.68 -26.08,-36.18 -48.73,-77.34 -64.87,-125.48 -68.81,-205.27 16.06,-416.24 178.85,-533 40.26,-28.87 94.45,-36.41 103.98,-86.48 10.28,-54.05 -37.4,-97.05 -92.09,-72.79z"/>
   <path class="fil2" d="M3964.29 1948.58c-231.98,47.81 -374.43,205 -449.68,400.77 -52.86,137.53 65.72,153.36 102.88,102.61 20.3,-27.73 31.88,-103.82 94.32,-187.58 156.37,-209.79 314.97,-172.97 361.75,-202.06 34.85,-21.67 73.43,-151.38 -109.27,-113.74z"/>
   <path class="fil2 str0" d="M5729.68 3956.91c-69.55,-0.13 -520.03,-6.58 -544.65,5.35 -15.94,18.9 -53.2,126.22 -136.8,233.02 -247.21,315.82 -671.38,446.83 -1059.01,310.99 -424.67,-148.81 -531.13,-503.54 -564.88,-544.01 -27.4,-13.25 -201.11,-4.19 -247.57,-4.54 -93,-0.69 -158.05,-21.72 -236.24,-25.9l-203.82 85.71c-25.9,10.39 -47.47,21.51 -53.89,46 -10.88,41.45 134.68,361.49 159.62,423.58 46.15,114.94 63.49,83.82 249.5,7.58 32.76,-13.43 105.54,-51.44 145.8,-52.33 5.62,21.05 16.57,30.12 29.32,46.88 68.71,90.22 138.73,160.16 228.62,228.61 16.76,12.76 25.83,23.71 46.88,29.33 -0.77,34.75 -61.91,170.63 -82.66,222.16 -73.39,182.3 -61.4,123.1 351.52,301.52 134.47,58.11 125.08,43.11 173.34,-66.24l91.24 -228.82c55.76,12.99 160.83,23.06 228.62,23.06 50.47,0 68.55,-5.97 114.26,-7.87 42.15,-1.76 76.91,-12.08 114.36,-15.19 12,51.49 63.5,158.18 87.14,217.69 47.18,118.75 51.57,133.11 172.16,79.71l296.81 -122.33c124.99,-55.15 115.04,-50.12 64.38,-170.67 -20.05,-47.7 -86.32,-200.34 -87.05,-233.02 29.77,-7.95 142.97,-108.53 169.63,-135.2 27.78,-27.78 45.13,-51.05 72.4,-80.01 15.81,-16.8 57.44,-69.54 62.8,-89.61 37.84,0.84 101.92,33.56 135.03,47.86 45.64,19.71 83.56,34.7 129.47,53.42 103.81,42.33 102.57,18.74 173.18,-158.94 111.04,-279.38 173.74,-318.98 52.77,-371.83 -37.61,-16.44 -104.45,-37.79 -132.28,-55.96z"/>
   <path class="fil3" d="M4485.42 3078.09c-33.41,20.3 -180.03,13.43 -231.86,6.61l3.1 -272.54c32.85,-5.1 221.31,-11.83 232.49,8.71 134.48,16.33 141.5,235.96 -3.73,257.22zm-364.45 -312.27l1.9 617.27c0,66.98 -19.98,193.65 29.25,226.01 34.88,22.91 75.19,5.63 91.59,-17.33 28.46,-39.85 5.48,-270.35 15.27,-373.39 139.02,-7.6 263.69,23.76 363,-56.13 73.62,-59.22 137.12,-166.31 90.08,-303.85 -73.54,-215.01 -290.35,-177.1 -463.66,-178.92 -83.13,-0.87 -127.43,-1.05 -127.43,86.34z"/>
   <path class="fil3" d="M3699.81 2962.59l60.89 187.9 -125.1 -0.72 64.21 -187.18zm-109.37 323.58l217.37 -0.75c18.45,58.07 37.66,113.16 57.13,171.58 14.84,44.53 32.5,137.86 72.46,156.38 70.28,32.58 110.88,-30.94 87.3,-102.48 -19.32,-58.64 -38.2,-113.74 -57.45,-171.45l-171.48 -514.45c-19.6,-58.75 -26.06,-137.35 -86.24,-144.9 -74.16,-9.3 -81.83,67.64 -101.91,127.83 -19.44,58.28 -38.18,114.54 -57.15,171.48l-171.58 514.15c-24.29,70.2 -9.16,151.08 76.01,122.45 44.97,-15.12 60.33,-106.4 75.93,-153.19 20.11,-60.31 37.99,-116.72 59.61,-176.65z"/>
   <path class="fil3" d="M4786.8 2808.82c42.58,-0.83 104.34,-0.09 146.61,12.37l-2.53 668.93 -146.87 1.05c-71,11.1 -84.55,123.46 20.24,130.05 79.83,5.01 177.91,0.14 259.57,0.03 75.5,-0.1 196.06,22.91 201.04,-63.09 5.54,-95.69 -119.26,-69.48 -197.56,-71.86l-3.34 -671.75c77.62,-2.22 196.74,23 200.94,-64.15 4.52,-93.92 -117.09,-70.79 -193.46,-70.84 -84.95,-0.06 -175.13,-3.08 -259.6,-0.35 -103.5,3.36 -112.09,120.93 -25.04,129.61z"/>
   <path class="fil4" d="M4130.91 1087.61l42.69 124.66 59.19 0 -145.71 -414.95 -68.31 0 -147.99 414.95 56.35 0 43.83 -124.66 159.95 0zm-14.8 -44.4l-132.06 0 68.3 -188.97 63.76 188.97z"/>
   <path id="1" class="fil4" d="M4591.96 919.13c0,-77.98 -46.1,-121.81 -128.07,-121.81l-171.33 0 0 414.95 52.93 0 0 -175.89 130.35 0c68.31,0 116.12,-46.1 116.12,-117.25zm-246.47 70.58l0 -145.72 110.43 0c50.66,0 80.83,27.32 80.83,72.86 0,45.54 -30.17,72.86 -80.83,72.86l-110.43 0z"/>
   <polygon id="2" class="fil4" points="4708.08,797.32 4654.57,797.32 4654.57,1212.27 4708.08,1212.27 "/>
  </g>
 </g>
</svg>
