<?xml version="1.0" encoding="UTF-8"?>
<!DOCTYPE svg PUBLIC "-//W3C//DTD SVG 1.1//EN" "http://www.w3.org/Graphics/SVG/1.1/DTD/svg11.dtd">
<!-- Creator: CorelDRAW 2018 (64 bitů) -->
<svg xmlns="http://www.w3.org/2000/svg" xml:space="preserve" width="86.6986mm" height="60.775mm" version="1.1" style="shape-rendering:geometricPrecision; text-rendering:geometricPrecision; image-rendering:optimizeQuality; fill-rule:evenodd; clip-rule:evenodd"
viewBox="0 0 8669.86 6077.5"
 xmlns:xlink="http://www.w3.org/1999/xlink">
 <defs>
  <style type="text/css">
   <![CDATA[
    .fil6 {fill:#FEFEFE}
    .fil0 {fill:#4D134A}
    .fil1 {fill:#FEFEFE;fill-rule:nonzero}
    .fil5 {fill:black;fill-rule:nonzero}
    .fil4 {fill:#0074D3;fill-rule:nonzero}
    .fil3 {fill:#8AD4A3;fill-rule:nonzero}
    .fil2 {fill:#D40053;fill-rule:nonzero}
   ]]>
  </style>
 </defs>
 <g id="Vrstva_x0020_1">
  <metadata id="CorelCorpID_0Corel-Layer"/>
  <g id="_2008465439488">
   <rect class="fil0" x="-0" y="0.01" width="8669.87" height="6077.47" rx="2738.53" ry="2106.96"/>
   <path class="fil1" d="M2467.53 739.08l0 291.52c0,55.79 -40.42,89.96 -107.04,89.96 -60.92,0 -105.9,-27.33 -105.9,-89.96l0 -291.52 -52.95 0 0 291.52c0,84.26 60.35,136.65 158.85,136.65 97.36,0 159.99,-53.53 159.99,-136.65l0 -291.52 -52.95 0z"/>
   <path id="1" class="fil1" d="M2734 822.21l54.66 -85.41 -36.44 0 -44.98 54.66 -46.12 -54.66 -35.87 0 54.66 85.41 54.09 0zm82.56 33.59l-222.62 0 0 41.56 166.25 0 -178.21 214.09 0 42.7 242.55 0 0 -41.56 -185.04 0 177.07 -214.66 0 -42.13z"/>
   <path id="2" class="fil1" d="M2934.42 855.8l-47.26 0 0 298.35 47.26 0 0 -298.35zm0 -116.72l-47.83 0 0 59.78 47.83 0 0 -59.78z"/>
   <polygon id="3" class="fil1" points="3137.68,1154.15 3252.12,855.8 3198.6,855.8 3114.34,1097.78 3034.62,855.8 2981.1,855.8 3085.87,1154.15 "/>
   <path id="4" class="fil1" d="M3285.72 944.05l47.83 0c3.98,-36.44 25.62,-52.95 70.03,-52.95 42.7,0 66.61,15.94 66.61,44.41l0 12.53c0,19.93 -11.95,28.47 -49.53,33.02 -87.11,11.39 -148.04,18.22 -148.04,97.93 0,54.09 37.58,88.26 97.94,88.26 37.57,0 67.75,-13.1 101.34,-43.85 3.42,30.18 18.22,43.85 48.97,43.85 9.68,0 17.08,-1.14 32.45,-5.13l0 -35.87c-5.12,1.14 -7.4,1.14 -10.25,1.14 -16.51,0 -25.62,-8.54 -25.62,-23.34l0 -175.37c0,-52.95 -38.71,-81.42 -112.16,-81.42 -53.52,0 -116.72,15.94 -119.57,96.79zm95.08 181.63c-37.01,0 -58.64,-17.65 -58.64,-47.83 0,-65.47 99.64,-48.96 148.03,-71.17l0 53.52c0,28.47 -33.02,65.48 -89.39,65.48z"/>
   <path id="5" class="fil1" d="M3704.21 855.8l-48.97 0 0 -81.99 -47.25 0 0 81.99 -40.43 0 0 38.72 40.43 0 0 225.47c0,30.17 20.49,47.26 57.5,47.26 11.39,0 22.78,-1.14 38.72,-3.99l0 -39.86c-6.26,1.71 -13.66,2.28 -22.77,2.28 -20.5,0 -26.2,-5.69 -26.2,-26.76l0 -204.4 48.97 0 0 -38.72z"/>
   <path id="6" class="fil1" d="M4007.12 1020.92c0,-45.55 -3.42,-72.88 -11.96,-95.09 -19.36,-48.96 -64.91,-78.57 -120.71,-78.57 -83.12,0 -136.65,63.77 -136.65,161.7 0,97.93 51.82,158.29 135.51,158.29 68.33,0 115.59,-38.72 127.54,-103.63l-47.82 0c-13.1,39.29 -39.86,59.78 -78.01,59.78 -30.17,0 -55.8,-13.66 -71.74,-38.71 -11.39,-17.08 -15.37,-34.17 -15.94,-63.77l219.78 0zm-218.64 -38.72c3.98,-55.23 37.58,-91.1 85.4,-91.1 46.69,0 82.56,38.72 82.56,87.68 0,1.14 0,2.28 -0.57,3.42l-167.39 0z"/>
   <polygon id="7" class="fil1" points="4118.14,739.08 4070.32,739.08 4070.32,1154.15 4118.14,1154.15 "/>
   <path id="8" class="fil1" d="M4227.46 1065.33l-50.1 0c2.28,68.89 40.99,101.92 119,101.92 75.15,0 122.98,-37.01 122.98,-94.52 0,-44.41 -25.05,-68.89 -84.27,-83.13l-45.55 -10.82c-38.71,-9.11 -55.22,-21.63 -55.22,-42.7 0,-27.33 24.48,-44.98 63.2,-44.98 38.14,0 58.64,16.51 59.78,47.83l50.1 0c-0.57,-58.65 -39.28,-91.67 -108.18,-91.67 -69.46,0 -114.44,35.87 -114.44,91.1 0,46.69 23.91,68.89 94.52,85.97l44.41 10.82c33.02,7.97 46.12,19.93 46.12,41.57 0,27.89 -27.9,46.68 -69.47,46.68 -58.07,0 -68.89,-29.03 -72.88,-58.07z"/>
   <polygon id="9" class="fil1" points="4522.96,739.08 4475.7,739.08 4475.7,1154.15 4522.96,1154.15 4522.96,1038 4569.08,992.45 4669.86,1154.15 4728.5,1154.15 4606.66,958.86 4710.28,855.8 4649.36,855.8 4522.96,982.2 "/>
   <path id="10" class="fil1" d="M4891.35 738.51l-54.66 84.27 34.16 0 84.83 -84.27 -64.33 0zm116.72 282.41c0,-45.55 -3.42,-72.88 -11.96,-95.09 -19.36,-48.96 -64.91,-78.57 -120.71,-78.57 -83.12,0 -136.65,63.77 -136.65,161.7 0,97.93 51.82,158.29 135.51,158.29 68.33,0 115.59,-38.72 127.54,-103.63l-47.82 0c-13.1,39.29 -39.86,59.78 -78.01,59.78 -30.17,0 -55.8,-13.66 -71.74,-38.71 -11.39,-17.08 -15.37,-34.17 -15.94,-63.77l219.78 0zm-218.64 -38.72c3.98,-55.23 37.58,-91.1 85.4,-91.1 46.69,0 82.56,38.72 82.56,87.68 0,1.14 0,2.28 -0.57,3.42l-167.39 0z"/>
   <path id="11" class="fil1" d="M5337.73 855.8l-49.54 0 0 -46.69c0,-19.93 11.39,-30.17 33.03,-30.17 3.98,0 5.69,0 16.51,0.56l0 -39.28c-10.82,-2.28 -17.08,-2.85 -26.76,-2.85 -43.84,0 -70.04,25.05 -70.04,67.76l0 50.67 -39.85 0 0 38.72 39.85 0 0 259.63 47.26 0 0 -259.63 49.54 0 0 -38.72z"/>
   <path id="12" class="fil1" d="M5510.24 738.51l-54.66 84.27 34.16 0 84.84 -84.27 -64.34 0zm-14.8 108.75c-83.7,0 -134.37,59.78 -134.37,159.99 0,100.21 50.1,160 134.94,160 83.7,0 134.94,-59.79 134.94,-157.72 0,-103.06 -49.54,-162.27 -135.51,-162.27zm0.57 43.84c53.52,0 85.4,43.84 85.4,117.86 0,70.03 -33.02,114.44 -85.4,114.44 -52.95,0 -85.41,-43.84 -85.41,-116.15 0,-71.74 32.46,-116.15 85.41,-116.15z"/>
   <path id="13" class="fil1" d="M5834.22 897.36l0 -48.39c-7.97,-1.14 -11.96,-1.71 -18.22,-1.71 -30.75,0 -54.09,18.22 -81.42,62.63l0 -54.09 -43.84 0 0 298.35 47.82 0 0 -154.87c0,-83.7 38.15,-100.78 95.66,-101.92z"/>
   <path id="14" class="fil1" d="M6112.64 1154.15l0 -298.35 -47.26 0 0 169.1c0,60.93 -31.89,100.78 -81.42,100.78 -37.58,0 -61.49,-22.77 -61.49,-58.64l0 -211.24 -47.26 0 0 230.03c0,49.53 37.01,81.42 95.08,81.42 43.85,0 71.74,-15.38 99.64,-54.66l0 41.56 42.71 0z"/>
   <path id="15" class="fil1" d="M6194.63 855.8l0 298.35 47.82 0 0 -187.32c0,-43.27 31.32,-78.01 70.04,-78.01 35.3,0 55.22,21.64 55.22,59.79l0 205.54 47.83 0 0 -187.32c0,-43.27 31.32,-78.01 70.03,-78.01 34.74,0 55.23,22.21 55.23,59.79l0 205.54 47.83 0 0 -223.76c0,-53.52 -30.75,-83.13 -86.54,-83.13 -39.86,0 -63.77,11.96 -91.67,45.55 -17.65,-31.89 -41.57,-45.55 -80.28,-45.55 -39.86,0 -66.05,14.8 -91.67,50.67l0 -42.13 -43.84 0z"/>
   <path class="fil2" d="M2055.42 2824.73c0,-33.05 26.78,-59.84 59.83,-59.84 33.05,0 59.84,26.79 59.84,59.84 0,33.04 -26.79,59.83 -59.84,59.83 -33.05,0 -59.83,-26.79 -59.83,-59.83zm348.44 59.83c-33.05,0 -59.84,-26.79 -59.84,-59.83 0,-33.05 26.79,-59.84 59.84,-59.84 33.04,0 59.83,26.79 59.83,59.84 0,33.04 -26.79,59.83 -59.83,59.83zm288.6 0c-33.05,0 -59.84,-26.79 -59.84,-59.83 0,-33.05 26.79,-59.84 59.84,-59.84 33.04,0 59.83,26.79 59.83,59.84 0,33.04 -26.79,59.83 -59.83,59.83zm254.08 -597.17l-1085.38 0c-98.99,0 -179.51,80.52 -179.51,179.5l0 715.67c0,98.98 80.52,179.51 179.51,179.51l553.51 0 279.62 217.61c10.72,8.33 23.69,12.62 36.76,12.62 8.95,0 17.93,-2.01 26.28,-6.09 20.53,-10.04 33.55,-30.9 33.55,-53.75l0 -170.39 155.66 0c98.98,0 179.51,-80.53 179.51,-179.51l0 -715.67c0,-98.98 -80.53,-179.5 -179.51,-179.5z"/>
   <path class="fil3" d="M4090.05 2302.81c-33.05,0 -59.84,-26.78 -59.84,-59.83 0,-33.05 26.79,-59.84 59.84,-59.84 33.05,0 59.84,26.79 59.84,59.84 0,33.05 -26.79,59.83 -59.84,59.83zm288.61 0c-33.06,0 -59.84,-26.78 -59.84,-59.83 0,-33.05 26.78,-59.84 59.84,-59.84 33.04,0 59.83,26.79 59.83,59.84 0,33.05 -26.79,59.83 -59.83,59.83zm288.6 0c-33.05,0 -59.84,-26.78 -59.84,-59.83 0,-33.05 26.79,-59.84 59.84,-59.84 33.05,0 59.83,26.79 59.83,59.84 0,33.05 -26.78,59.83 -59.83,59.83zm254.08 -597.17l-1085.37 0c-98.98,0 -179.51,80.53 -179.51,179.51l0 715.66c0,98.99 80.53,179.51 179.51,179.51l381.39 0 110.28 179.93c10.84,17.69 30.09,28.5 50.84,28.57l0.18 0c20.69,0 39.92,-10.7 50.83,-28.28l111.88 -180.22 379.97 0c98.99,0 179.51,-80.52 179.51,-179.51l0 -715.66c0,-98.98 -80.52,-179.51 -179.51,-179.51z"/>
   <path class="fil4" d="M6064.86 2884.56c-33.06,0 -59.85,-26.79 -59.85,-59.83 0,-33.05 26.79,-59.84 59.85,-59.84 33.06,0 59.81,26.79 59.81,59.84 0,33.04 -26.75,59.83 -59.81,59.83zm577.2 0c-33.06,0 -59.85,-26.79 -59.85,-59.83 0,-33.05 26.79,-59.84 59.85,-59.84 33.06,0 59.85,26.79 59.85,59.84 0,33.04 -26.79,59.83 -59.85,59.83zm-348.45 -59.83c0,-33.05 26.79,-59.84 59.85,-59.84 33.06,0 59.81,26.79 59.81,59.84 0,33.04 -26.75,59.83 -59.81,59.83 -33.06,0 -59.85,-26.79 -59.85,-59.83zm602.52 -537.34l-1085.34 0c-98.98,0 -179.51,80.52 -179.51,179.5l0 715.67c0,98.98 80.53,179.51 179.51,179.51l155.66 0 0 170.39c0,22.85 12.99,43.71 33.53,53.75 8.35,4.08 17.31,6.09 26.28,6.09 13.09,0 26.03,-4.29 36.75,-12.62l279.64 -217.61 553.48 0c98.98,0 179.52,-80.53 179.52,-179.51l0 -715.67c0,-98.98 -80.54,-179.5 -179.52,-179.5z"/>
   <path class="fil5" d="M4891.85 4525.04c64.82,-62.06 137.67,-114.59 216.38,-156.43 -33.71,-50.67 -73.45,-98.16 -118.86,-141.64 -116.76,-111.79 -261.05,-187.47 -418.13,-221.15 172.83,-74.6 294.09,-246.64 294.09,-446.49 0,-267.99 -218.01,-486.01 -486.01,-486.01 -267.99,0 -486,218.02 -486,486.01 0,200.62 122.18,373.25 296.1,447.37 -155.53,34.08 -298.4,109.41 -414.19,220.27 -45.53,43.59 -85.36,91.22 -119.13,142.06 78.37,41.76 150.93,94.13 215.55,156.01 86.39,82.71 154.73,178.29 203.09,282.31l614.03 0c48.36,-104.01 116.69,-199.6 203.08,-282.31z"/>
   <path class="fil5" d="M6183 4605.46c-115.86,-110.93 -258.76,-186.28 -414.37,-220.35 156.56,-69.24 270,-218.86 287.65,-396.24 0.09,-0.67 0.19,-1.34 0.23,-2.01 1.62,-16.13 2.47,-32.5 2.47,-49.04 0,-268 -218.03,-486.03 -486.03,-486.03 -251.53,0 -459.03,192.06 -483.58,437.24 -1.79,16.88 -2.7,34.01 -2.7,51.35 0,199.18 120.45,370.73 292.33,445.69 -48.54,10.88 -95.81,25.77 -141.39,44.52 -99.06,40.71 -190.15,99.6 -268.77,174.87 -163.02,156.09 -253.04,363.9 -253.47,585.17l118.9 0.24 0 -0.24 1483.29 0 0 0.24 112.69 -0.23 6.26 -0.01c-0.48,-221.27 -90.5,-429.08 -253.51,-585.17z"/>
   <path class="fil5" d="M3794.67 4605.46c-58.32,-55.83 -123.5,-102.67 -193.72,-139.75 -69.2,-36.55 -143.3,-63.65 -220.51,-80.57 170.74,-75.44 290.2,-246.4 290.2,-444.76 0,-0.77 0,-1.55 -0.01,-2.31l0 -0.25c0,-1.24 0,-2.48 -0.03,-3.72 -1.99,-266.3 -219.24,-482.31 -485.98,-482.31 -268,0 -486.02,218.03 -486.02,486.03 0,0.82 0,1.64 0.01,2.46 0,0.74 0,1.49 0.02,2.24 0.84,198.21 120.99,368.8 292.17,443.52 -154.02,34.5 -295.47,109.48 -410.29,219.42 -163.03,156.09 -253.05,363.9 -253.48,585.17l0.01 0 118.89 0.24 0 -0.24 1483.31 0 0 0.24 118.91 -0.24c-0.45,-221.27 -90.46,-429.08 -253.48,-585.17z"/>
   <polygon class="fil5" points="6436.51,5190.63 6430.25,5190.64 6317.56,5190.87 6317.56,5190.63 "/>
   <path class="fil6" d="M4048.15 5190.63c-0.45,-221.27 -90.46,-429.08 -253.48,-585.17 -58.32,-55.83 -123.5,-102.67 -193.72,-139.75 -69.2,-36.55 -143.3,-63.65 -220.52,-80.57 170.75,-75.44 290.21,-246.4 290.21,-444.76 0,-0.77 0,-1.55 -0.01,-2.31l0 -0.25c0,-1.24 0,-2.48 -0.03,-3.72 -1.99,-266.3 -219.24,-482.31 -485.98,-482.31 -268,0 -486.02,218.03 -486.02,486.03 0,0.82 0,1.64 0.01,2.46 0,0.74 0,1.49 0.01,2.24 0.85,198.21 121,368.8 292.19,443.52 -154.03,34.5 -295.48,109.48 -410.3,219.42 -163.03,156.09 -253.05,363.9 -253.47,585.17l118.89 0.24 0 -0.24 1483.31 0 0 0.24 118.91 -0.24z"/>
   <path class="fil6" d="M4074.74 4807.35l614.03 0c48.36,-104.01 116.69,-199.6 203.08,-282.3 64.82,-62.07 137.67,-114.6 216.38,-156.44 -33.71,-50.67 -73.45,-98.16 -118.86,-141.64 -116.76,-111.79 -261.05,-187.47 -418.13,-221.15 172.83,-74.6 294.09,-246.64 294.09,-446.49 0,-267.99 -218.01,-486.01 -486.01,-486.01 -267.99,0 -486,218.02 -486,486.01 0,200.62 122.18,373.25 296.1,447.36 -155.53,34.09 -298.4,109.42 -414.19,220.28 -45.53,43.59 -85.36,91.22 -119.13,142.06 78.37,41.76 150.93,94.13 215.55,156.02 86.39,82.7 154.73,178.28 203.09,282.3z"/>
   <path class="fil6" d="M4968.84 4605.46c-163.02,156.09 -253.04,363.9 -253.47,585.17l118.9 0.24 0 -0.24 1483.29 0 112.69 0 6.26 0c-0.48,-221.27 -90.5,-429.08 -253.51,-585.17 -115.86,-110.93 -258.76,-186.28 -414.37,-220.35 156.56,-69.24 270,-218.86 287.65,-396.24 0.09,-0.67 0.19,-1.34 0.23,-2.01 1.62,-16.13 2.47,-32.5 2.47,-49.04 0,-268 -218.03,-486.03 -486.03,-486.03 -251.53,0 -459.03,192.06 -483.58,437.24 -1.79,16.88 -2.7,34.01 -2.7,51.35 0,199.18 120.45,370.73 292.33,445.69 -48.54,10.88 -95.81,25.77 -141.39,44.52 -99.06,40.71 -190.15,99.6 -268.77,174.87z"/>
  </g>
 </g>
</svg>
